<svg id="visual" viewBox="0 0 1920 1080" width="1920" height="1080" xmlns="http://www.w3.org/2000/svg" xmlns:xlink="http://www.w3.org/1999/xlink" version="1.1"><rect x="0" y="0" width="1920" height="1080" fill="#001220"></rect><defs><linearGradient id="grad1_0" x1="43.8%" y1="100%" x2="100%" y2="0%"><stop offset="14.444444444444446%" stop-color="#001220" stop-opacity="1"></stop><stop offset="85.55555555555554%" stop-color="#001220" stop-opacity="1"></stop></linearGradient></defs><defs><linearGradient id="grad2_0" x1="0%" y1="100%" x2="56.3%" y2="0%"><stop offset="14.444444444444446%" stop-color="#001220" stop-opacity="1"></stop><stop offset="85.55555555555554%" stop-color="#001220" stop-opacity="1"></stop></linearGradient></defs><g transform="translate(1920, 1080)"><path d="M-648 0C-639.7 -85.5 -631.4 -171 -598.7 -248C-566 -325 -508.9 -393.6 -444.1 -444.1C-379.2 -494.6 -306.5 -527 -231.1 -558C-155.8 -589 -77.9 -618.5 0 -648L0 0Z" fill="#FBAE3C"></path></g><g transform="translate(0, 0)"><path d="M648 0C630 80.8 612 161.6 583.9 241.9C555.8 322.1 517.6 401.8 458.2 458.2C398.8 514.6 318.3 547.8 238.4 575.6C158.5 603.3 79.3 625.7 0 648L0 0Z" fill="#FBAE3C"></path></g></svg>